# File created by Blade
# Date/Time:  Tue Apr 07 20:22:14 2015
# Frame Rate: 120.000 fps
#------------------------------------------------------
:FULLY-SPECIFIED
:DEGREES
1163
root 0.581141 32.841767 -9.885269 12.894758 -1.556095 -0.262651
Spine -15.050701 -4.100804 0.528238
Head 18.107084 0.587830 -1.557514
LeftShoulder -21.612279 40.770959 19.461948
LeftArm 54.795411 -53.246996 -60.574603
LeftForeArm 9.401835 -0.000000 6.215969
LeftHand 6.971022 -0.000000 10.982654
LeftHandThumb1 -26.253704 0.000000 33.147579
RightShoulder -8.174558 5.631651 -31.445234
RightArm 8.609053 15.345559 39.566276
RightForeArm -13.577046 -0.000000 6.829671
RightHand 4.349436 -0.000000 -4.184385
RightHandThumb1 -24.326973 -0.000000 -32.862282
LeftUpLeg -9.002330 -6.390002 1.449029
LeftLeg -1.241690 -0.000000 0.000000
LeftFoot -6.836531 12.664440 -14.125781
LeftToeBase -10.092936 -0.000000 0.000000
RightUpLeg -8.331328 -1.032416 1.483633
RightLeg -3.675335 -0.000000 0.000000
RightFoot -6.065258 -4.870580 6.380878
RightToeBase 4.110334 -0.000000 -0.000000
1164
root 0.576824 32.836371 -9.876535 12.887591 -1.514225 -0.301010
Spine -15.047633 -4.055809 0.599298
Head 18.130111 0.522415 -1.629543
LeftShoulder -21.534322 40.829013 19.330278
LeftArm 55.112582 -52.651477 -61.167533
LeftForeArm 9.376756 -0.000000 6.264723
LeftHand 7.008248 -0.000000 11.357903
LeftHandThumb1 -26.253704 0.000000 33.147579
RightShoulder -8.133423 5.434491 -31.286572
RightArm 8.778948 15.170428 40.043992
RightForeArm -13.494997 -0.000000 6.814516
RightHand 4.158522 -0.000000 -3.948985
RightHandThumb1 -24.326973 -0.000000 -32.862282
LeftUpLeg -8.927816 -6.655465 1.529723
LeftLeg -1.351919 -0.000000 0.000000
LeftFoot -6.927535 12.955857 -14.132035
LeftToeBase -10.050278 -0.000000 0.000000
RightUpLeg -8.288125 -1.040543 1.538481
RightLeg -3.705505 -0.000000 0.000000
RightFoot -6.094743 -4.914839 6.339697
RightToeBase 4.095320 -0.000000 -0.000000
1165
root 0.577574 32.832220 -9.867688 12.897686 -1.494787 -0.303162
Spine -15.077182 -4.036235 0.652084
Head 18.156138 0.455188 -1.740914
LeftShoulder -21.580970 41.093255 19.041603
LeftArm 55.868627 -52.229524 -62.149562
LeftForeArm 9.414304 0.000000 6.285281
LeftHand 6.965099 -0.000000 11.170179
LeftHandThumb1 -26.253704 0.000000 33.147579
RightShoulder -8.065910 5.211774 -31.155342
RightArm 9.043960 15.047979 40.615958
RightForeArm -13.332891 -0.000000 6.674460
RightHand 4.200956 -0.000000 -3.968722
RightHandThumb1 -24.326973 -0.000000 -32.862282
LeftUpLeg -8.903916 -6.709377 1.541150
LeftLeg -1.391573 -0.000000 0.000000
LeftFoot -6.954873 12.984510 -14.156422
LeftToeBase -10.052982 -0.000000 0.000000
RightUpLeg -8.266239 -1.045783 1.544364
RightLeg -3.734539 -0.000000 0.000000
RightFoot -6.116838 -4.946984 6.300196
RightToeBase 4.112487 -0.000000 -0.000000
1166
root 0.579822 32.828160 -9.859073 12.908444 -1.479815 -0.298384
Spine -15.099871 -4.036213 0.700736
Head 18.154140 0.453240 -1.812259
LeftShoulder -21.671504 41.385400 18.697399
LeftArm 56.421428 -51.697351 -62.784774
LeftForeArm 9.266815 -0.000000 6.182707
LeftHand 7.044702 -0.000000 10.542262
LeftHandThumb1 -26.253704 0.000000 33.147579
RightShoulder -7.964564 5.172516 -31.053985
RightArm 9.183252 14.778801 41.163008
RightForeArm -13.028622 -0.000000 6.437832
RightHand 4.434582 -0.000000 -3.917839
RightHandThumb1 -24.326973 -0.000000 -32.862282
LeftUpLeg -8.900923 -6.683602 1.529312
LeftLeg -1.386014 -0.000000 0.000000
LeftFoot -6.995254 12.935908 -14.156289
LeftToeBase -10.035216 -0.000000 0.000000
RightUpLeg -8.245450 -1.037912 1.535313
RightLeg -3.762391 -0.000000 0.000000
RightFoot -6.148126 -4.982601 6.276912
RightToeBase 4.110327 -0.000000 -0.000000
1167
root 0.581809 32.824593 -9.851900 12.935629 -1.460295 -0.295656
Spine -15.137797 -4.024361 0.749824
Head 18.156800 0.468802 -1.867387
LeftShoulder -21.697335 41.532756 18.433987
LeftArm 56.694944 -51.057201 -63.127121
LeftForeArm 9.314037 -0.000000 5.998071
LeftHand 6.903679 -0.000000 10.110890
LeftHandThumb1 -26.253704 0.000000 33.147579
RightShoulder -7.876571 5.044417 -30.936020
RightArm 9.400638 14.612500 41.724999
RightForeArm -12.805735 -0.000000 6.169377
RightHand 4.618793 -0.000000 -4.002006
RightHandThumb1 -24.326973 -0.000000 -32.862282
LeftUpLeg -8.910308 -6.672092 1.524554
LeftLeg -1.398131 -0.000000 0.000000
LeftFoot -7.000469 12.901639 -14.122340
LeftToeBase -10.086851 -0.000000 0.000000
RightUpLeg -8.247893 -1.030346 1.528923
RightLeg -3.781926 -0.000000 0.000000
RightFoot -6.173155 -5.007694 6.250901
RightToeBase 4.109973 -0.000000 -0.000000
1168
root 0.582660 32.820585 -9.843414 12.955763 -1.441269 -0.301548
Spine -15.171209 -4.007784 0.803249
Head 18.148598 0.457196 -1.921269
LeftShoulder -21.654505 41.583917 18.214889
LeftArm 56.750128 -50.417665 -63.254910
LeftForeArm 9.223844 0.000000 5.746560
LeftHand 7.030054 -0.000000 9.350479
LeftHandThumb1 -26.253704 0.000000 33.147579
RightShoulder -7.794872 4.910084 -30.807088
RightArm 9.655485 14.408790 42.267818
RightForeArm -12.668495 0.000000 5.874762
RightHand 4.300566 -0.000000 -3.278768
RightHandThumb1 -24.326973 -0.000000 -32.862282
LeftUpLeg -8.906637 -6.677288 1.526720
LeftLeg -1.415205 -0.000000 0.000000
LeftFoot -7.032167 12.922659 -14.085944
LeftToeBase -10.122826 -0.000000 0.000000
RightUpLeg -8.235417 -1.009667 1.530220
RightLeg -3.810492 -0.000000 0.000000
RightFoot -6.193990 -5.036224 6.242085
RightToeBase 4.058719 -0.000000 -0.000000
1169
root 0.584589 32.818612 -9.835865 12.977088 -1.425379 -0.282196
Spine -15.207747 -4.012562 0.838044
Head 18.157458 0.473259 -1.992714
LeftShoulder -21.546036 41.492761 18.080726
LeftArm 56.518043 -49.669903 -63.112478
LeftForeArm 9.304603 -0.000000 5.375841
LeftHand 7.061544 -0.000000 8.881702
LeftHandThumb1 -26.253704 0.000000 33.147579
RightShoulder -7.685774 4.827158 -30.658882
RightArm 9.887736 14.136948 42.749721
RightForeArm -12.565272 -0.000000 5.505622
RightHand 4.276252 0.000000 -2.969816
RightHandThumb1 -24.326973 -0.000000 -32.862282
LeftUpLeg -8.908946 -6.683728 1.512341
LeftLeg -1.428190 -0.000000 0.000000
LeftFoot -7.057194 12.870295 -14.151610
LeftToeBase -10.041384 -0.000000 0.000000
RightUpLeg -8.232389 -0.998790 1.506094
RightLeg -3.830314 -0.000000 0.000000
RightFoot -6.217228 -5.063488 6.253100
RightToeBase 4.043510 -0.000000 -0.000000
1170
root 0.585560 32.816049 -9.828758 13.001519 -1.404859 -0.272322
Spine -15.238753 -4.020024 0.869263
Head 18.125420 0.454156 -2.015288
LeftShoulder -21.545197 41.628794 17.827497
LeftArm 56.648315 -49.041475 -63.245156
LeftForeArm 9.315364 -0.000000 5.043020
LeftHand 7.043908 -0.000000 8.244797
LeftHandThumb1 -26.253704 0.000000 33.147579
RightShoulder -7.579755 4.837889 -30.545918
RightArm 10.031880 13.884064 43.263785
RightForeArm -12.378446 -0.000000 5.132725
RightHand 4.559480 -0.000000 -1.956853
RightHandThumb1 -24.326973 -0.000000 -32.862282
LeftUpLeg -8.916896 -6.699784 1.505399
LeftLeg -1.439518 -0.000000 0.000000
LeftFoot -7.070845 12.874057 -14.143070
LeftToeBase -10.082340 -0.000000 0.000000
RightUpLeg -8.231958 -0.990719 1.493857
RightLeg -3.850581 -0.000000 0.000000
RightFoot -6.240650 -5.095488 6.237676
RightToeBase 4.070944 -0.000000 -0.000000
1171
root 0.586912 32.813280 -9.820882 13.038068 -1.387827 -0.274476
Spine -15.276231 -4.006623 0.905086
Head 18.055427 0.406363 -2.028490
LeftShoulder -21.492906 41.703287 17.656327
LeftArm 56.703977 -48.399727 -63.379052
LeftForeArm 9.294890 -0.000000 4.745609
LeftHand 6.876015 -0.000000 7.644327
LeftHandThumb1 -26.253704 0.000000 33.147579
RightShoulder -7.461253 4.786118 -30.445793
RightArm 10.157510 13.674218 43.818036
RightForeArm -12.270063 -0.000000 4.797419
RightHand 4.420058 -0.000000 -1.270507
RightHandThumb1 -24.326973 -0.000000 -32.862282
LeftUpLeg -8.938728 -6.684298 1.501792
LeftLeg -1.442352 -0.000000 0.000000
LeftFoot -7.092559 12.864894 -14.116181
LeftToeBase -10.058285 -0.000000 0.000000
RightUpLeg -8.243064 -0.966072 1.489220
RightLeg -3.867458 -0.000000 0.000000
RightFoot -6.266280 -5.128250 6.241738
RightToeBase 4.068185 -0.000000 -0.000000
